<?xml version="1.0" standalone="no"?>
<!DOCTYPE svg PUBLIC "-//W3C//DTD SVG 20010904//EN"
 "http://www.w3.org/TR/2001/REC-SVG-20010904/DTD/svg10.dtd">
<svg version="1.0" xmlns="http://www.w3.org/2000/svg"
 width="256.000000pt" height="256.000000pt" viewBox="0 0 256.000000 256.000000"
 preserveAspectRatio="xMidYMid meet">
<metadata>
Created by potrace 1.14, written by Peter Selinger 2001-2017
</metadata>
<g transform="translate(0.000000,256.000000) scale(0.100000,-0.100000)"
fill="#000000" stroke="none">
<path d="M0 1280 l0 -1280 1280 0 1280 0 0 1280 0 1280 -1280 0 -1280 0 0
-1280z m1268 1012 c9 -6 4 -14 -17 -30 l-29 -21 11 29 c12 32 15 34 35 22z
m-23 -238 c25 -57 25 -57 46 -38 12 10 28 36 36 57 8 20 21 37 29 37 8 0 13
-3 12 -7 -4 -18 15 -73 25 -74 7 -1 -13 -6 -43 -13 -52 -11 -55 -13 -58 -44
-2 -20 2 -34 10 -36 7 -2 35 -10 61 -17 57 -14 66 -29 44 -75 -30 -63 -98 -32
-110 51 -7 42 -37 74 -71 75 -11 0 -16 -3 -13 -7 4 -3 2 -12 -4 -20 -9 -10 -6
-13 18 -13 51 0 63 -17 55 -80 -5 -42 -11 -56 -26 -58 -13 -3 -16 0 -11 9 6 9
3 11 -9 6 -10 -4 -22 -7 -26 -7 -5 0 -26 -17 -47 -37 l-38 -38 -3 97 c-2 82 0
104 18 138 16 31 27 40 48 42 15 1 0 4 -33 7 l-60 6 49 48 c27 26 56 47 63 47
7 0 24 -25 38 -56z m-325 -285 c0 -6 -5 -19 -10 -29 -8 -14 -5 -28 11 -54 32
-55 11 -73 -42 -35 l-29 20 0 -23 c0 -13 7 -33 15 -44 20 -27 19 -29 -17 -29
-27 0 -34 -4 -36 -22 -2 -16 -10 -23 -25 -23 -14 0 -46 -24 -87 -66 -36 -36
-76 -70 -90 -76 -24 -10 -24 -11 -5 -18 16 -7 13 -9 -15 -9 -35 0 -35 0 -12
16 12 8 22 22 22 30 0 7 25 60 55 116 58 110 116 175 200 225 56 34 65 37 65
21z m285 -101 c27 -50 13 -92 -32 -96 -53 -5 -91 69 -60 119 20 33 68 22 92
-23z m-57 -107 c37 -29 84 -48 138 -56 119 -18 212 -34 225 -40 17 -6 32 -53
22 -67 -8 -15 -98 -7 -153 12 -81 28 -180 27 -239 -4 -54 -29 -128 -38 -136
-18 -10 27 -4 51 26 108 32 63 56 94 71 94 5 0 26 -13 46 -29z m-574 -109 c3
-5 -7 -26 -21 -47 -27 -40 -44 -35 -22 6 9 17 9 24 0 27 -6 2 -9 8 -5 13 7 11
41 12 48 1z m-109 -22 c-3 -6 3 -24 15 -40 12 -17 20 -40 18 -52 -2 -17 -9
-10 -30 34 -33 66 -33 68 -12 68 8 0 12 -5 9 -10z m38 -10 c-3 -11 -9 -20 -14
-20 -10 0 -12 24 -2 33 13 13 21 7 16 -13z m842 -9 c5 0 -6 -15 -25 -33 l-35
-31 81 5 c45 3 87 2 94 -2 19 -11 7 -85 -25 -156 -24 -53 -49 -115 -90 -223
-13 -35 -33 -49 -70 -50 -20 0 -20 0 -1 14 18 14 18 16 2 34 -42 47 -157 258
-170 314 -6 24 0 34 51 81 l58 54 60 -3 c33 -1 64 -3 70 -4z m-765 -105 c0
-15 -10 -30 -26 -41 l-27 -17 7 26 c4 17 2 26 -6 26 -16 0 23 29 40 30 6 0 12
-11 12 -24z m-15 -217 c28 -8 52 -16 55 -20 3 -3 66 -20 140 -38 210 -50 273
-77 290 -124 12 -37 5 -47 -16 -21 -8 10 -13 13 -9 7 9 -19 -12 -16 -23 2 -10
18 -42 10 -42 -10 0 -7 -9 -23 -19 -36 -19 -24 -19 -24 2 -49 12 -14 4 -9 -18
11 -47 43 -108 67 -277 109 -66 17 -164 45 -217 62 -82 26 -93 32 -77 42 10 6
41 28 70 48 53 39 59 39 141 17z m735 -323 c0 -2 -7 -7 -16 -10 -8 -3 -12 -2
-9 4 6 10 25 14 25 6z"/>
<path d="M1212 1891 c-23 -14 -10 -46 18 -46 20 0 25 5 25 25 0 26 -20 36 -43
21z"/>
<path d="M1322 1873 c2 -22 8 -28 28 -28 16 0 26 6 28 19 4 21 -13 36 -41 36
-14 0 -18 -6 -15 -27z"/>
</g>
</svg>
